<svg width="36" height="36" viewBox="0 0 36 36" fill="none" xmlns="http://www.w3.org/2000/svg">
<rect width="36" height="36" fill="#706363"/>
<g clip-path="url(#clip0_14_2)">
<rect width="1280" height="4339" transform="translate(-1096 -4191)" fill="#F2F2F2"/>
<rect x="-1096" y="-153" width="1280" height="233" fill="#2B2B2B"/>
<path d="M32 0H4C1.79 0 0 1.79 0 4V32C0 34.21 1.79 36 4 36H19.242V22.078H14.556V16.628H19.242V12.618C19.242 7.97 22.084 5.436 26.232 5.436C27.63 5.432 29.026 5.504 30.416 5.646V10.506H27.56C25.3 10.506 24.86 11.574 24.86 13.15V16.62H30.26L29.558 22.07H24.828V36H32C34.21 36 36 34.21 36 32V4C36 1.79 34.21 0 32 0Z" fill="white"/>
</g>
<defs>
<clipPath id="clip0_14_2">
<rect width="1280" height="4339" fill="white" transform="translate(-1096 -4191)"/>
</clipPath>
</defs>
</svg>
