<svg width="40" height="33" viewBox="0 0 40 33" fill="none" xmlns="http://www.w3.org/2000/svg">
<rect width="40" height="33" fill="#706363"/>
<g clip-path="url(#clip0_14_2)">
<rect width="1280" height="4339" transform="translate(-990 -4193)" fill="#F2F2F2"/>
<rect x="-990" y="-155" width="1280" height="233" fill="#2B2B2B"/>
<path d="M40 0C38.44 0.926 35.31 2.188 33.47 2.552C33.416 2.566 33.372 2.584 33.32 2.598C31.694 0.994 29.466 0 27 0C22.03 0 18 4.03 18 9C18 9.262 17.978 9.744 18 10C11.294 10 6.19 6.488 2.53 2C2.132 3 1.958 4.58 1.958 6.064C1.958 8.866 4.148 11.618 7.558 13.324C6.93 13.486 6.238 13.602 5.518 13.602C4.356 13.602 3.126 13.296 2 12.368C2 12.402 2 12.434 2 12.47C2 16.386 6.156 19.052 9.852 19.794C9.102 20.236 7.59 20.28 6.852 20.28C6.332 20.28 4.492 20.042 4 19.95C5.028 23.16 8.736 24.964 12.27 25.028C9.506 27.196 7.588 28 1.928 28H0C3.576 30.292 8.13 32.002 12.694 32.002C27.554 32.002 36 20.676 36 10C36 9.828 35.996 9.468 35.99 9.106C35.99 9.07 36 9.036 36 9C36 8.946 35.984 8.894 35.984 8.84C35.978 8.568 35.972 8.314 35.966 8.182C37.546 7.042 38.916 5.62 40 4C38.55 4.644 36.994 5.076 35.36 5.272C37.028 4.272 39.398 1.888 40 0Z" fill="white"/>
</g>
<defs>
<clipPath id="clip0_14_2">
<rect width="1280" height="4339" fill="white" transform="translate(-990 -4193)"/>
</clipPath>
</defs>
</svg>
